<?xml version="1.0" encoding="UTF-8"?>
<svg width="36px" height="36px" viewBox="0 0 36 36" version="1.1" xmlns="http://www.w3.org/2000/svg" xmlns:xlink="http://www.w3.org/1999/xlink">
    <!-- Generator: Sketch 46.2 (44496) - http://www.bohemiancoding.com/sketch -->
    <title>nav/folder-click@1x</title>
    <desc>Created with Sketch.</desc>
    <defs></defs>
    <g id="components" stroke="none" stroke-width="1" fill="none" fill-rule="evenodd">
        <g id="assets-2" transform="translate(-64.000000, -159.000000)">
            <g id="nav/folder-click" transform="translate(64.000000, 159.000000)">
                <circle id="Oval-2-Copy" fill="#323947" cx="18" cy="18" r="18"></circle>
                <path d="M25.6796875,18.4375 C25.6796875,18.5989591 25.5989591,18.7708324 25.4375,18.953125 L22.8125,22.046875 C22.5885405,22.3125013 22.2747416,22.5377595 21.8710938,22.7226562 C21.4674459,22.907553 21.0937517,23 20.75,23 L12.25,23 C12.0729158,23 11.9153653,22.9661462 11.7773438,22.8984375 C11.6393222,22.8307288 11.5703125,22.7187508 11.5703125,22.5625 C11.5703125,22.4010409 11.6510409,22.2291676 11.8125,22.046875 L14.4375,18.953125 C14.6614595,18.6874987 14.9752584,18.4622405 15.3789062,18.2773438 C15.7825541,18.092447 16.1562483,18 16.5,18 L25,18 C25.1770842,18 25.3346347,18.0338538 25.4726562,18.1015625 C25.6106778,18.1692712 25.6796875,18.2812492 25.6796875,18.4375 Z M23,15.75 L23,17 L16.5,17 C16.0104142,17 15.4973985,17.1236967 14.9609375,17.3710938 C14.4244765,17.6184908 13.9973974,17.9296856 13.6796875,18.3046875 L11.046875,21.3984375 L11.0078125,21.4453125 C11.0078125,21.4244791 11.0065104,21.3919273 11.0039062,21.3476562 C11.0013021,21.3033852 11,21.2708334 11,21.25 L11,13.75 C11,13.2708309 11.1718733,12.8593767 11.515625,12.515625 C11.8593767,12.1718733 12.2708309,12 12.75,12 L15.25,12 C15.7291691,12 16.1406233,12.1718733 16.484375,12.515625 C16.8281267,12.8593767 17,13.2708309 17,13.75 L17,14 L21.25,14 C21.7291691,14 22.1406233,14.1718733 22.484375,14.515625 C22.8281267,14.8593767 23,15.2708309 23,15.75 Z" id="ï¼" fill="#8AB9FB"></path>
            </g>
        </g>
    </g>
</svg>