<?xml version="1.0" encoding="UTF-8"?>
<svg width="36px" height="36px" viewBox="0 0 36 36" version="1.1" xmlns="http://www.w3.org/2000/svg" xmlns:xlink="http://www.w3.org/1999/xlink">
    <!-- Generator: Sketch 46.2 (44496) - http://www.bohemiancoding.com/sketch -->
    <title>nav/save-normal@1x</title>
    <desc>Created with Sketch.</desc>
    <defs></defs>
    <g id="components" stroke="none" stroke-width="1" fill="none" fill-rule="evenodd">
        <g id="assets-2" transform="translate(-16.000000, -112.000000)">
            <g id="nav/save-normal" transform="translate(16.000000, 112.000000)">
                <circle id="Oval-2" fill="#424F69" cx="18" cy="18" r="18"></circle>
                <path d="M15,23 L21,23 L21,20 L15,20 L15,23 Z M22,23 L23,23 L23,16 C23,15.927083 22.9739586,15.8268236 22.921875,15.6992188 C22.8697914,15.5716139 22.8177086,15.4817711 22.765625,15.4296875 L20.5703125,13.234375 C20.5182289,13.1822914 20.4296881,13.1302086 20.3046875,13.078125 C20.1796869,13.0260414 20.0781254,13 20,13 L20,16.25 C20,16.4583344 19.9270841,16.6354159 19.78125,16.78125 C19.6354159,16.9270841 19.4583344,17 19.25,17 L14.75,17 C14.5416656,17 14.3645841,16.9270841 14.21875,16.78125 C14.0729159,16.6354159 14,16.4583344 14,16.25 L14,13 L13,13 L13,23 L14,23 L14,19.75 C14,19.5416656 14.0729159,19.3645841 14.21875,19.21875 C14.3645841,19.0729159 14.5416656,19 14.75,19 L21.25,19 C21.4583344,19 21.6354159,19.0729159 21.78125,19.21875 C21.9270841,19.3645841 22,19.5416656 22,19.75 L22,23 Z M19,15.75 L19,13.25 C19,13.1822913 18.9752607,13.1236982 18.9257812,13.0742188 C18.8763018,13.0247393 18.8177087,13 18.75,13 L17.25,13 C17.1822913,13 17.1236982,13.0247393 17.0742188,13.0742188 C17.0247393,13.1236982 17,13.1822913 17,13.25 L17,15.75 C17,15.8177087 17.0247393,15.8763018 17.0742188,15.9257812 C17.1236982,15.9752607 17.1822913,16 17.25,16 L18.75,16 C18.8177087,16 18.8763018,15.9752607 18.9257812,15.9257812 C18.9752607,15.8763018 19,15.8177087 19,15.75 Z M24,16 L24,23.25 C24,23.4583344 23.9270841,23.6354159 23.78125,23.78125 C23.6354159,23.9270841 23.4583344,24 23.25,24 L12.75,24 C12.5416656,24 12.3645841,23.9270841 12.21875,23.78125 C12.0729159,23.6354159 12,23.4583344 12,23.25 L12,12.75 C12,12.5416656 12.0729159,12.3645841 12.21875,12.21875 C12.3645841,12.0729159 12.5416656,12 12.75,12 L20,12 C20.2083344,12 20.4374988,12.0520828 20.6875,12.15625 C20.9375012,12.2604172 21.1354159,12.3854159 21.28125,12.53125 L23.46875,14.71875 C23.6145841,14.8645841 23.7395828,15.0624987 23.84375,15.3125 C23.9479172,15.5625013 24,15.7916656 24,16 Z" id="" fill="#D8D8D8"></path>
            </g>
        </g>
    </g>
</svg>