<?xml version="1.0" encoding="UTF-8"?>
<svg width="36px" height="36px" viewBox="0 0 36 36" version="1.1" xmlns="http://www.w3.org/2000/svg" xmlns:xlink="http://www.w3.org/1999/xlink">
    <!-- Generator: Sketch 46.2 (44496) - http://www.bohemiancoding.com/sketch -->
    <title>nav/user-cluck@1x</title>
    <desc>Created with Sketch.</desc>
    <defs></defs>
    <g id="components" stroke="none" stroke-width="1" fill="none" fill-rule="evenodd">
        <g id="assets-2" transform="translate(-114.000000, -159.000000)">
            <g id="nav/user-cluck" transform="translate(114.000000, 159.000000)">
                <circle id="Oval-2-Copy" fill="#323947" cx="18" cy="18" r="18"></circle>
                <path d="M28.1565217,17.0628019 L25.2888889,19.92657 C25.2399353,19.9755236 25.1819649,20 25.1149758,20 C25.0479868,20 24.9900163,19.9755236 24.9410628,19.92657 L22.07343,17.0628019 C22.0244764,17.0138484 22,16.9552338 22,16.8869565 C22,16.8186792 22.0244764,16.7600647 22.07343,16.7111111 L22.7149758,16.07343 C22.7639294,16.0244764 22.8218998,16 22.8888889,16 C22.955878,16 23.0138484,16.0244764 23.0628019,16.07343 L25.1149758,18.1256039 L27.1671498,16.07343 C27.2161033,16.0244764 27.2740737,16 27.3410628,16 C27.4080519,16 27.4660223,16.0244764 27.5149758,16.07343 L28.1565217,16.7111111 C28.2054753,16.7600647 28.2299517,16.8186792 28.2299517,16.8869565 C28.2299517,16.9552338 28.2054753,17.0138484 28.1565217,17.0628019 Z" id="" fill="#8AB9FB"></path>
                <path d="M19,21.9765625 C19,22.6015656 18.8098977,23.0950503 18.4296875,23.4570312 C18.0494773,23.8190122 17.544274,24 16.9140625,24 L10.0859375,24 C9.45572602,24 8.95052273,23.8190122 8.5703125,23.4570312 C8.19010227,23.0950503 8,22.6015656 8,21.9765625 C8,21.7005195 8.00911449,21.4309909 8.02734375,21.1679688 C8.04557301,20.9049466 8.08203098,20.6210953 8.13671875,20.3164062 C8.19140652,20.0117172 8.26041625,19.729168 8.34375,19.46875 C8.42708375,19.208332 8.5390618,18.9544283 8.6796875,18.7070312 C8.8203132,18.4596342 8.98176992,18.2486988 9.1640625,18.0742188 C9.34635508,17.8997387 9.5690091,17.7604172 9.83203125,17.65625 C10.0950534,17.5520828 10.3854151,17.5 10.703125,17.5 C10.7500002,17.5 10.8593741,17.555989 11.03125,17.6679688 C11.2031259,17.7799485 11.3971343,17.9049472 11.6132812,18.0429688 C11.8294282,18.1809903 12.1106754,18.305989 12.4570312,18.4179688 C12.8033871,18.5299485 13.1510399,18.5859375 13.5,18.5859375 C13.8489601,18.5859375 14.1966129,18.5299485 14.5429688,18.4179688 C14.8893246,18.305989 15.1705718,18.1809903 15.3867188,18.0429688 C15.6028657,17.9049472 15.7968741,17.7799485 15.96875,17.6679688 C16.1406259,17.555989 16.2499998,17.5 16.296875,17.5 C16.6145849,17.5 16.9049466,17.5520828 17.1679688,17.65625 C17.4309909,17.7604172 17.6536449,17.8997387 17.8359375,18.0742188 C18.0182301,18.2486988 18.1796868,18.4596342 18.3203125,18.7070312 C18.4609382,18.9544283 18.5729162,19.208332 18.65625,19.46875 C18.7395838,19.729168 18.8085935,20.0117172 18.8632812,20.3164062 C18.917969,20.6210953 18.954427,20.9049466 18.9726562,21.1679688 C18.9908855,21.4309909 19,21.7005195 19,21.9765625 Z M16.5,15 C16.5,15.8281291 16.2070342,16.5351533 15.6210938,17.1210938 C15.0351533,17.7070342 14.3281291,18 13.5,18 C12.6718709,18 11.9648467,17.7070342 11.3789062,17.1210938 C10.7929658,16.5351533 10.5,15.8281291 10.5,15 C10.5,14.1718709 10.7929658,13.4648467 11.3789062,12.8789062 C11.9648467,12.2929658 12.6718709,12 13.5,12 C14.3281291,12 15.0351533,12.2929658 15.6210938,12.8789062 C16.2070342,13.4648467 16.5,14.1718709 16.5,15 Z" id="-copy" fill="#8AB9FB"></path>
            </g>
        </g>
    </g>
</svg>