<?xml version="1.0" encoding="UTF-8"?>
<svg width="20px" height="20px" viewBox="0 0 20 20" version="1.1" xmlns="http://www.w3.org/2000/svg" xmlns:xlink="http://www.w3.org/1999/xlink">
    <!-- Generator: Sketch 46.2 (44496) - http://www.bohemiancoding.com/sketch -->
    <title>legend/scale@1x</title>
    <desc>Created with Sketch.</desc>
    <defs></defs>
    <g id="components" stroke="none" stroke-width="1" fill="none" fill-rule="evenodd">
        <g id="assets-2" transform="translate(-888.000000, -139.000000)">
            <g id="legend/scale" transform="translate(885.000000, 136.000000)">
                <rect id="Rectangle-12-Copy" fill="#F0F4F7" opacity="0" x="0" y="0" width="26" height="26"></rect>
                <g id="Group-46" transform="translate(3.000000, 3.000000)" fill-rule="nonzero" fill="#A8B7C7">
                    <g id="Group-45">
                        <path d="M10,19.5555556 C11.2272994,19.5555556 12.2222222,18.5606328 12.2222222,17.3333333 C12.2222222,16.1060339 11.2272994,15.1111111 10,15.1111111 C8.77270056,15.1111111 7.77777778,16.1060339 7.77777778,17.3333333 C7.77777778,18.5606328 8.77270056,19.5555556 10,19.5555556 Z M10,20 C8.52724067,20 7.33333333,18.8060927 7.33333333,17.3333333 C7.33333333,15.860574 8.52724067,14.6666667 10,14.6666667 C11.4727593,14.6666667 12.6666667,15.860574 12.6666667,17.3333333 C12.6666667,18.8060927 11.4727593,20 10,20 Z" id="Oval-5"></path>
                        <path d="M10,19.4545455 C13.0124623,19.4545455 15.4545455,17.0124623 15.4545455,14 C15.4545455,10.9875377 13.0124623,8.54545455 10,8.54545455 C6.98753773,8.54545455 4.54545455,10.9875377 4.54545455,14 C4.54545455,17.0124623 6.98753773,19.4545455 10,19.4545455 Z M10,20 C6.6862915,20 4,17.3137085 4,14 C4,10.6862915 6.6862915,8 10,8 C13.3137085,8 16,10.6862915 16,14 C16,17.3137085 13.3137085,20 10,20 Z" id="Oval-5-Copy"></path>
                        <path d="M10,19.3333333 C15.1546577,19.3333333 19.3333333,15.1546577 19.3333333,10 C19.3333333,4.84534234 15.1546577,0.666666667 10,0.666666667 C4.84534234,0.666666667 0.666666667,4.84534234 0.666666667,10 C0.666666667,15.1546577 4.84534234,19.3333333 10,19.3333333 Z M10,20 C4.4771525,20 0,15.5228475 0,10 C0,4.4771525 4.4771525,0 10,0 C15.5228475,0 20,4.4771525 20,10 C20,15.5228475 15.5228475,20 10,20 Z" id="Oval-5-Copy-2"></path>
                    </g>
                </g>
            </g>
        </g>
    </g>
</svg>