<?xml version="1.0" encoding="UTF-8"?>
<svg width="32px" height="32px" viewBox="0 0 32 32" version="1.1" xmlns="http://www.w3.org/2000/svg" xmlns:xlink="http://www.w3.org/1999/xlink">
    <!-- Generator: Sketch 46.2 (44496) - http://www.bohemiancoding.com/sketch -->
    <title>maptool/min-normal@1x</title>
    <desc>Created with Sketch.</desc>
    <defs>
        <rect id="path-1" x="0" y="0" width="24" height="24" rx="2"></rect>
        <filter x="-25.0%" y="-20.8%" width="150.0%" height="150.0%" filterUnits="objectBoundingBox" id="filter-2">
            <feMorphology radius="1" operator="dilate" in="SourceAlpha" result="shadowSpreadOuter1"></feMorphology>
            <feOffset dx="0" dy="1" in="shadowSpreadOuter1" result="shadowOffsetOuter1"></feOffset>
            <feGaussianBlur stdDeviation="1.5" in="shadowOffsetOuter1" result="shadowBlurOuter1"></feGaussianBlur>
            <feComposite in="shadowBlurOuter1" in2="SourceAlpha" operator="out" result="shadowBlurOuter1"></feComposite>
            <feColorMatrix values="0 0 0 0 0.329411765   0 0 0 0 0.411764706   0 0 0 0 0.552941176  0 0 0 0.5 0" type="matrix" in="shadowBlurOuter1"></feColorMatrix>
        </filter>
    </defs>
    <g id="components" stroke="none" stroke-width="1" fill="none" fill-rule="evenodd">
        <g id="assets-2" transform="translate(-917.000000, -97.000000)">
            <g id="maptool/min-normal" transform="translate(921.000000, 100.000000)">
                <g id="Group-11" stroke-width="1">
                    <g id="Rectangle-391-Copy-5">
                        <use fill="black" fill-opacity="1" filter="url(#filter-2)" xlink:href="#path-1"></use>
                        <use fill="#FFFFFF" fill-rule="evenodd" xlink:href="#path-1"></use>
                        <rect stroke="#CBD1DB" stroke-width="1" x="-0.5" y="-0.5" width="25" height="25" rx="2"></rect>
                    </g>
                </g>
                <path d="M12,12.5086093 L12,16.0688742 C12,16.2066232 11.9496694,16.3258273 11.8490066,16.4264901 C11.7483439,16.5271528 11.6291398,16.5774834 11.4913907,16.5774834 C11.3536417,16.5774834 11.2344376,16.5271528 11.1337748,16.4264901 L9.98940397,15.2821192 L7.35099338,17.9205298 C7.29801298,17.9735102 7.23708644,18 7.16821192,18 C7.0993374,18 7.03841086,17.9735102 6.98543046,17.9205298 L6.0794702,17.0145695 C6.0264898,16.9615891 6,16.9006626 6,16.8317881 C6,16.7629136 6.0264898,16.701987 6.0794702,16.6490066 L8.71788079,14.010596 L7.57350993,12.8662252 C7.47284718,12.7655624 7.42251656,12.6463583 7.42251656,12.5086093 C7.42251656,12.3708602 7.47284718,12.2516561 7.57350993,12.1509934 C7.67417269,12.0503306 7.79337679,12 7.93112583,12 L11.4913907,12 C11.6291398,12 11.7483439,12.0503306 11.8490066,12.1509934 C11.9496694,12.2516561 12,12.3708602 12,12.5086093 Z M18,7.16821192 C18,7.23708644 17.9735102,7.29801298 17.9205298,7.35099338 L15.2821192,9.98940397 L16.4264901,11.1337748 C16.5271528,11.2344376 16.5774834,11.3536417 16.5774834,11.4913907 C16.5774834,11.6291398 16.5271528,11.7483439 16.4264901,11.8490066 C16.3258273,11.9496694 16.2066232,12 16.0688742,12 L12.5086093,12 C12.3708602,12 12.2516561,11.9496694 12.1509934,11.8490066 C12.0503306,11.7483439 12,11.6291398 12,11.4913907 L12,7.93112583 C12,7.79337679 12.0503306,7.67417269 12.1509934,7.57350993 C12.2516561,7.47284718 12.3708602,7.42251656 12.5086093,7.42251656 C12.6463583,7.42251656 12.7655624,7.47284718 12.8662252,7.57350993 L14.010596,8.71788079 L16.6490066,6.0794702 C16.701987,6.0264898 16.7629136,6 16.8317881,6 C16.9006626,6 16.9615891,6.0264898 17.0145695,6.0794702 L17.9205298,6.98543046 C17.9735102,7.03841086 18,7.0993374 18,7.16821192 Z" id="ï¦" fill="#A8B7C7"></path>
            </g>
        </g>
    </g>
</svg>