<?xml version="1.0" encoding="UTF-8"?>
<svg width="90px" height="65px" viewBox="0 0 90 65" version="1.1" xmlns="http://www.w3.org/2000/svg" xmlns:xlink="http://www.w3.org/1999/xlink">
    <!-- Generator: Sketch 46.2 (44496) - http://www.bohemiancoding.com/sketch -->
    <title>maptool/pin-2@1x</title>
    <desc>Created with Sketch.</desc>
    <defs>
        <circle id="path-1" cx="45" cy="47" r="7"></circle>
        <filter x="-89.3%" y="-60.7%" width="278.6%" height="278.6%" filterUnits="objectBoundingBox" id="filter-2">
            <feOffset dx="0" dy="4" in="SourceAlpha" result="shadowOffsetOuter1"></feOffset>
            <feGaussianBlur stdDeviation="3.5" in="shadowOffsetOuter1" result="shadowBlurOuter1"></feGaussianBlur>
            <feComposite in="shadowBlurOuter1" in2="SourceAlpha" operator="out" result="shadowBlurOuter1"></feComposite>
            <feColorMatrix values="0 0 0 0 0   0 0 0 0 0   0 0 0 0 0  0 0 0 0.5 0" type="matrix" in="shadowBlurOuter1"></feColorMatrix>
        </filter>
    </defs>
    <g id="components" stroke="none" stroke-width="1" fill="none" fill-rule="evenodd">
        <g id="assets-2" transform="translate(-848.000000, -185.000000)">
            <g id="maptool/pin-2" transform="translate(848.000000, 185.000000)">
                <g id="Group-21">
                    <g>
                        <g id="Oval-Copy-3">
                            <use fill="black" fill-opacity="1" filter="url(#filter-2)" xlink:href="#path-1"></use>
                            <use fill="#FF5959" fill-rule="evenodd" xlink:href="#path-1"></use>
                            <circle stroke="#FFFFFF" stroke-width="1.68" cx="45" cy="47" r="6.16"></circle>
                        </g>
                        <path d="M35.8461709,27 L43.9569231,35.016438 L43.9569231,47.6861538 L46.2830769,47.6861538 L46.2830769,35.0346907 L54.3931571,27 L76.5,27 C83.9558441,27 90,20.9558441 90,13.5 L90,13.5 C90,6.04415588 83.9558441,6.21911852e-15 76.5,1.42108547e-14 L76.5,0 L13.5,0 L13.5,0 C6.04415588,1.36961635e-15 -9.13077564e-16,6.04415588 0,13.5 L0,13.5 L0,13.5 C9.13077564e-16,20.9558441 6.04415588,27 13.5,27 L35.8461709,27 Z" id="Combined-Shape-Copy-2" fill="#FF5959"></path>
                        <text id="案发地点" font-family="PingFangSC-Regular, PingFang SC" font-size="16.8" font-weight="normal" line-spacing="20.16" fill="#FFFFFF">
                            <tspan x="11" y="21">案发地点</tspan>
                        </text>
                    </g>
                </g>
            </g>
        </g>
    </g>
</svg>