<?xml version="1.0" encoding="UTF-8"?>
<svg width="26px" height="26px" viewBox="0 0 26 26" version="1.1" xmlns="http://www.w3.org/2000/svg" xmlns:xlink="http://www.w3.org/1999/xlink">
    <!-- Generator: Sketch 46.2 (44496) - http://www.bohemiancoding.com/sketch -->
    <title>maptool/pin@1x</title>
    <desc>Created with Sketch.</desc>
    <defs>
        <rect id="path-1" x="0" y="0" width="18" height="18" rx="2"></rect>
        <filter x="-33.3%" y="-27.8%" width="166.7%" height="166.7%" filterUnits="objectBoundingBox" id="filter-2">
            <feMorphology radius="1" operator="dilate" in="SourceAlpha" result="shadowSpreadOuter1"></feMorphology>
            <feOffset dx="0" dy="1" in="shadowSpreadOuter1" result="shadowOffsetOuter1"></feOffset>
            <feGaussianBlur stdDeviation="1.5" in="shadowOffsetOuter1" result="shadowBlurOuter1"></feGaussianBlur>
            <feComposite in="shadowBlurOuter1" in2="SourceAlpha" operator="out" result="shadowBlurOuter1"></feComposite>
            <feColorMatrix values="0 0 0 0 0.329411765   0 0 0 0 0.411764706   0 0 0 0 0.552941176  0 0 0 0.5 0" type="matrix" in="shadowBlurOuter1"></feColorMatrix>
        </filter>
    </defs>
    <g id="components" stroke="none" stroke-width="1" fill="none" fill-rule="evenodd">
        <g id="assets-2" transform="translate(-953.000000, -25.000000)">
            <g id="maptool/pin" transform="translate(957.000000, 28.000000)">
                <g id="Group-46">
                    <g id="Rectangle-391-Copy-6">
                        <use fill="black" fill-opacity="1" filter="url(#filter-2)" xlink:href="#path-1"></use>
                        <use fill="#FFFFFF" fill-rule="evenodd" xlink:href="#path-1"></use>
                        <rect stroke="#CBD1DB" stroke-width="1" x="-0.5" y="-0.5" width="19" height="19" rx="2"></rect>
                    </g>
                    <path d="M9.27692308,11.941593 L9.27692308,14.9538462 L8.72307692,14.9538462 L8.72307692,11.9372472 L6.51787019,9.7576832 C6.51740264,9.75721641 6.51693378,9.7567509 6.51646364,9.75628668 C6.49886442,9.73347104 6.47855846,9.71283899 6.45598408,9.6948359 C5.42586644,8.67357016 5.11645851,7.13543176 5.6739687,5.80106801 C6.23147889,4.4667313 7.54211417,3.6 8.9989406,3.6 C10.4557665,3.6 11.7678089,4.4667313 12.3253193,5.80106801 C12.8828096,7.13540473 12.5762333,8.66938029 11.5461164,9.6906456 C11.5377083,9.69909334 11.5297283,9.70794962 11.522206,9.71718176 L9.27692308,11.941593 Z M9,8.58461538 C9.76470196,8.58461538 10.3846154,7.96470196 10.3846154,7.2 C10.3846154,6.43529804 9.76470196,5.81538462 9,5.81538462 C8.23529804,5.81538462 7.61538462,6.43529804 7.61538462,7.2 C7.61538462,7.96470196 8.23529804,8.58461538 9,8.58461538 Z" id="Combined-Shape" fill="#FF5959"></path>
                </g>
            </g>
        </g>
    </g>
</svg>