<?xml version="1.0" encoding="UTF-8"?>
<svg width="30px" height="30px" viewBox="0 0 30 30" version="1.1" xmlns="http://www.w3.org/2000/svg" xmlns:xlink="http://www.w3.org/1999/xlink">
    <!-- Generator: Sketch 46.2 (44496) - http://www.bohemiancoding.com/sketch -->
    <title>filtericon/map-set@1x</title>
    <desc>Created with Sketch.</desc>
    <defs>
        <path d="M21.4475479,10.5250921 L17.446593,8.52461464 C17.2521021,8.44126141 17.0298269,8.44126141 16.8631204,8.52461464 L13.167794,10.38617 L9.44468317,8.52461464 C9.2224079,8.413477 8.94456381,8.413477 8.75007294,8.55239905 C8.55558208,8.66353669 8.44444444,8.88581196 8.44444444,9.10808723 L8.44444444,19.1104745 C8.44444444,19.3605342 8.58336649,19.5828095 8.80564176,19.6939471 L12.8065967,21.6944246 C13.0010875,21.7777778 13.2233628,21.7777778 13.3900693,21.6944246 L17.1131801,19.8328691 L20.8085065,21.6944246 C20.8918597,21.7499934 21.0029974,21.7777778 21.114135,21.7777778 C21.2252726,21.7777778 21.3641947,21.7499934 21.4753323,21.6666401 C21.6698232,21.5555025 21.7809608,21.3332272 21.7809608,21.110952 L21.7809608,11.1085647 C21.7809608,10.858505 21.6698232,10.6362297 21.4475479,10.5250921 L21.4475479,10.5250921 Z M20.3917404,11.8031749 L20.3917404,17.0822126 C20.3917404,17.3878411 20.1138963,17.6101164 19.8360522,17.4989788 C18.808029,17.109997 19.6415613,15.3873637 18.8913823,14.4426938 C18.196772,13.5813771 17.3076709,14.4704782 16.4463543,13.1090421 C15.6406064,11.8031749 16.7241984,10.858505 17.7244371,10.3583856 C17.8633591,10.3028168 18.0022812,10.3028168 18.1134188,10.3583856 L20.1694651,11.3864088 C20.3361715,11.469762 20.3917404,11.6364685 20.3917404,11.8031749 L20.3917404,11.8031749 Z M14.8070741,19.5272406 C14.6403677,19.6105939 14.4458768,19.5828095 14.3069548,19.4716718 C14.0291107,19.2216121 13.8068354,18.8326304 13.8068354,18.4436487 C13.8068354,17.7768229 12.695459,17.9990981 12.695459,16.6654465 C12.695459,15.5818545 11.4173762,15.3040105 10.3337843,15.4151481 C10.0559402,15.4429325 9.86144931,15.2484416 9.86144931,14.9705975 L9.86144931,10.9140738 C9.86144931,10.5806609 10.1948622,10.3583856 10.4727063,10.5250921 L12.8621655,11.7198217 C12.8899499,11.7198217 12.9177343,11.7476061 12.9177343,11.7476061 L13.0010875,11.8031749 C14.0013263,12.3866475 13.8068354,12.8589825 13.3900693,13.5813771 C12.9177343,14.387125 12.7232434,13.5813771 12.0564176,13.3591018 C11.3895918,13.1368265 10.722766,13.5813771 10.9450413,14.0259276 C11.1673165,14.4704782 11.8341424,14.0259276 12.2786929,14.4704782 C12.7232434,14.9150287 12.7232434,15.5818545 14.0568951,15.137304 C15.3905467,14.6927535 15.612822,14.9150287 16.0573725,15.3595793 C16.5019231,15.8041298 16.7241984,16.6932309 16.0573725,17.3600567 C15.6683908,17.7490385 15.5016844,18.5825707 15.3349779,19.1382589 C15.3071935,19.2493966 15.2238403,19.3605342 15.1127026,19.416103 L14.8070741,19.5272406 L14.8070741,19.5272406 Z" id="path-1"></path>
    </defs>
    <g id="components" stroke="none" stroke-width="1" fill="none" fill-rule="evenodd">
        <g id="assets-2" transform="translate(-209.000000, -17.000000)">
            <g id="filtericon/region-set" transform="translate(208.000000, 16.000000)">
                <g id="Group-8-Copy-6" transform="translate(1.000000, 1.000000)">
                    <rect id="Rectangle-Copy-2" stroke="#8AB9FB" stroke-width="0.75" x="0.375" y="0.375" width="28.5833333" height="28.5833333" rx="14.2916667"></rect>
                    <mask id="mask-2" fill="white">
                        <use xlink:href="#path-1"></use>
                    </mask>
                    <use id="Mask" fill="#85ABFB" xlink:href="#path-1"></use>
                </g>
            </g>
        </g>
    </g>
</svg>