<?xml version="1.0" encoding="UTF-8"?>
<svg width="30px" height="30px" viewBox="0 0 30 30" version="1.1" xmlns="http://www.w3.org/2000/svg" xmlns:xlink="http://www.w3.org/1999/xlink">
    <!-- Generator: Sketch 46.2 (44496) - http://www.bohemiancoding.com/sketch -->
    <title>filtericon/date-unset@1x</title>
    <desc>Created with Sketch.</desc>
    <defs>
        <path d="M19.5486111,8.88888889 L18.1597222,8.88888889 L18.1597222,8.33333333 C18.1597222,7.88888889 17.7986111,7.5 17.3263889,7.5 C16.8819444,7.5 16.4930556,7.86111111 16.4930556,8.33333333 L16.4930556,8.88888889 L12.6041667,8.88888889 L12.6041667,8.33333333 C12.6041667,7.88888889 12.2430556,7.5 11.7708333,7.5 C11.3263889,7.5 10.9375,7.86111111 10.9375,8.33333333 L10.9375,8.88888889 L9.54861111,8.88888889 C8.9375,8.88888889 8.4375,9.38888889 8.4375,10 L8.4375,10.6944444 C8.4375,10.9166667 8.63194444,11.1111111 8.85416667,11.1111111 L20.2430556,11.1111111 C20.4652778,11.1111111 20.6597222,10.9166667 20.6597222,10.6944444 L20.6597222,10 C20.6597222,9.38888889 20.1597222,8.88888889 19.5486111,8.88888889 Z M20.2430556,12.5 L8.85416667,12.5 C8.63194444,12.5 8.4375,12.6944444 8.4375,12.9166667 L8.4375,19.7222222 C8.4375,20.3333333 8.9375,20.8333333 9.54861111,20.8333333 L19.5486111,20.8333333 C20.1597222,20.8333333 20.6597222,20.3333333 20.6597222,19.7222222 L20.6597222,12.9166667 C20.6597222,12.6944444 20.4652778,12.5 20.2430556,12.5 Z M15.3819444,18.6111111 L15.3819444,18.6666667 C15.3819444,18.8888889 15.1041667,19.1666667 14.8263889,19.1666667 C14.5486111,19.1666667 14.2708333,18.8888889 14.2708333,18.6111111 L14.2708333,15.8333333 L13.8541667,16.2777778 C13.7708333,16.3611111 13.6875,16.3888889 13.5763889,16.3888889 C13.3541667,16.3888889 13.1597222,16.1944444 13.1597222,15.9722222 C13.1597222,15.8611111 13.2152778,15.75 13.2986111,15.6666667 L14.3819444,14.5833333 C14.4930556,14.4722222 14.6319444,14.4166667 14.7986111,14.4166667 C15.1041667,14.4166667 15.3819444,14.6666667 15.3819444,14.9722222 L15.3819444,18.6111111 Z" id="path-1"></path>
    </defs>
    <g id="components" stroke="none" stroke-width="1" fill="none" fill-rule="evenodd">
        <g id="assets-2" transform="translate(-161.000000, -65.000000)">
            <g id="filtericon/date-unset" transform="translate(160.000000, 64.000000)">
                <g id="Group" transform="translate(1.000000, 1.000000)">
                    <rect id="Rectangle-Copy-2" stroke="#8494A5" stroke-width="0.75" x="0.375" y="0.375" width="28.5833333" height="28.5833333" rx="14.2916667"></rect>
                    <mask id="mask-2" fill="white">
                        <use xlink:href="#path-1"></use>
                    </mask>
                    <use id="Mask" fill="#8494A5" xlink:href="#path-1"></use>
                </g>
            </g>
        </g>
    </g>
</svg>