<?xml version="1.0" encoding="UTF-8"?>
<svg width="30px" height="30px" viewBox="0 0 30 30" version="1.1" xmlns="http://www.w3.org/2000/svg" xmlns:xlink="http://www.w3.org/1999/xlink">
    <!-- Generator: Sketch 46.2 (44496) - http://www.bohemiancoding.com/sketch -->
    <title>filtericon/id-set@1x</title>
    <desc>Created with Sketch.</desc>
    <defs>
        <path d="M12.2222222,0.555555556 L9.13888889,0.555555556 C9.13888889,0.555555556 9.16666667,0.75 9.16666667,0.833333333 C9.16666667,1.91666667 8.30555556,2.77777778 7.22222222,2.77777778 L5.55555556,2.77777778 C4.47222222,2.77777778 3.61111111,1.91666667 3.61111111,0.833333333 C3.61111111,0.75 3.61111111,0.555555556 3.63888889,0.555555556 L1.11111111,0.555555556 C0.5,0.555555556 7.10542736e-15,1.05555556 7.10542736e-15,1.66666667 L7.10542736e-15,10 C7.10542736e-15,10.6111111 0.5,11.1111111 1.11111111,11.1111111 L12.2222222,11.1111111 C12.8333333,11.1111111 13.3333333,10.6111111 13.3333333,10 L13.3333333,1.66666667 C13.3333333,1.05555556 12.8333333,0.555555556 12.2222222,0.555555556 Z M5.47222222,8.88888889 L2.30555556,8.88888889 C1.94444444,8.88888889 1.66666667,8.55555556 1.66666667,8.19444444 C1.66666667,7.63888889 2.25,7.33333333 2.86111111,7.08333333 C3.27777778,6.91666667 3.33333333,6.75 3.33333333,6.55555556 C3.33333333,6.38888889 3.22222222,6.22222222 3.08333333,6.08333333 C2.83333333,5.86111111 2.69444444,5.52777778 2.69444444,5.16666667 C2.69444444,4.47222222 3.11111111,3.88888889 3.86111111,3.88888889 C4.61111111,3.88888889 5.02777778,4.47222222 5.02777778,5.16666667 C5.02777778,5.52777778 4.88888889,5.86111111 4.63888889,6.08333333 C4.5,6.22222222 4.38888889,6.38888889 4.38888889,6.55555556 C4.38888889,6.72222222 4.44444444,6.88888889 4.86111111,7.08333333 C5.47222222,7.33333333 6.05555556,7.63888889 6.05555556,8.19444444 C6.11111111,8.55555556 5.83333333,8.88888889 5.47222222,8.88888889 Z M11.6666667,7.77777778 C11.6666667,7.94444444 11.5555556,8.05555556 11.3888889,8.05555556 L7.5,8.05555556 C7.33333333,8.05555556 7.22222222,7.94444444 7.22222222,7.77777778 L7.22222222,7.22222222 C7.22222222,7.05555556 7.33333333,6.94444444 7.5,6.94444444 L11.3888889,6.94444444 C11.5555556,6.94444444 11.6666667,7.05555556 11.6666667,7.22222222 L11.6666667,7.77777778 Z M12.2222222,5.55555556 C12.2222222,5.72222222 12.1111111,5.83333333 11.9444444,5.83333333 L7.5,5.83333333 C7.33333333,5.83333333 7.22222222,5.72222222 7.22222222,5.55555556 L7.22222222,5 C7.22222222,4.83333333 7.33333333,4.72222222 7.5,4.72222222 L11.9444444,4.72222222 C12.1111111,4.72222222 12.2222222,4.83333333 12.2222222,5 L12.2222222,5.55555556 Z M5.55555556,1.66666667 L7.22222222,1.66666667 C7.69444444,1.66666667 8.05555556,1.30555556 8.05555556,0.833333333 C8.05555556,0.361111111 7.69444444,-3.0375702e-13 7.22222222,-3.0375702e-13 L5.55555556,-3.0375702e-13 C5.08333333,-3.0375702e-13 4.72222222,0.361111111 4.72222222,0.833333333 C4.72222222,1.30555556 5.08333333,1.66666667 5.55555556,1.66666667 Z" id="path-1"></path>
    </defs>
    <g id="components" stroke="none" stroke-width="1" fill="none" fill-rule="evenodd">
        <g id="assets-2" transform="translate(-257.000000, -17.000000)">
            <g id="filtericon/id-set" transform="translate(256.000000, 16.000000)">
                <g id="Group-8-Copy-4" transform="translate(1.000000, 1.000000)">
                    <rect id="Rectangle-Copy-2" stroke="#8AB9FB" stroke-width="0.75" x="0.375" y="0.375" width="28.5833333" height="28.5833333" rx="14.2916667"></rect>
                    <g id="c" transform="translate(8.444444, 9.361111)">
                        <mask id="mask-2" fill="white">
                            <use xlink:href="#path-1"></use>
                        </mask>
                        <use id="Mask" fill="#85ABFB" xlink:href="#path-1"></use>
                    </g>
                </g>
            </g>
        </g>
    </g>
</svg>