<?xml version="1.0" encoding="UTF-8"?>
<svg width="28px" height="28px" viewBox="0 0 28 28" version="1.1" xmlns="http://www.w3.org/2000/svg" xmlns:xlink="http://www.w3.org/1999/xlink">
    <!-- Generator: Sketch 46.2 (44496) - http://www.bohemiancoding.com/sketch -->
    <title>filtericon/resetall-active@1x</title>
    <desc>Created with Sketch.</desc>
    <defs></defs>
    <g id="components" stroke="none" stroke-width="1" fill="none" fill-rule="evenodd">
        <g id="assets-2" transform="translate(-306.000000, -66.000000)">
            <g id="filtericon/resetall-active" transform="translate(304.000000, 64.000000)">
                <g id="Group-3" transform="translate(2.666667, 2.666667)">
                    <path d="M5.33333333,0.666666667 C2.7560045,0.666666667 0.666666667,2.7560045 0.666666667,5.33333333 L0.666666667,21.3333333 C0.666666667,23.9106622 2.7560045,26 5.33333333,26 L21.3333333,26 C23.9106622,26 26,23.9106622 26,21.3333333 L26,5.33333333 C26,2.7560045 23.9106622,0.666666667 21.3333333,0.666666667 L5.33333333,0.666666667 Z M5.33333333,-0.666666667 L21.3333333,-0.666666667 C24.6470418,-0.666666667 27.3333333,2.01962483 27.3333333,5.33333333 L27.3333333,21.3333333 C27.3333333,24.6470418 24.6470418,27.3333333 21.3333333,27.3333333 L5.33333333,27.3333333 C2.01962483,27.3333333 -0.666666667,24.6470418 -0.666666667,21.3333333 L-0.666666667,5.33333333 C-0.666666667,2.01962483 2.01962483,-0.666666667 5.33333333,-0.666666667 Z" id="Rectangle-5-Copy" fill="#8AB9FB" fill-rule="nonzero"></path>
                    <path d="M18.6471306,7.6027676 L17.8656899,7.6027676 C17.6573057,7.6027676 17.4749695,7.78510379 17.4749695,7.99348799 L17.4749695,9.81684982 C17.4749695,10.0512821 17.3447293,10.1554742 17.1623932,9.999186 C17.0842491,9.89499389 17.006105,9.81684982 16.9019129,9.73870574 C15.5995116,8.43630444 13.7761498,7.88929589 11.9006919,8.25396825 C11.2494912,8.38420838 10.6243386,8.64468864 10.0773301,9.00936101 C8.48840049,10.0512821 7.57671958,11.7444037 7.55067155,13.5677656 C7.52462352,14.974359 8.07163207,16.3809524 9.06145706,17.3968254 C10.1033781,18.4908425 11.5099715,19.0899471 13.020757,19.0899471 C14.3492063,19.0899471 15.5995116,18.6210826 16.5893366,17.7875458 C16.7716728,17.6312576 16.7716728,17.3707774 16.6153846,17.2144892 L16.0683761,16.6674807 C15.9381359,16.5372405 15.7037037,16.5111925 15.5474155,16.6414326 C14.6096866,17.4228734 13.3333333,17.7354497 12.0569801,17.4228734 C11.7183557,17.3447293 11.3797314,17.1884412 11.0671551,17.006105 C9.58241758,16.0944241 8.87912088,14.3752544 9.2958893,12.6560847 C9.37403337,12.3174603 9.53032153,11.978836 9.71265771,11.6662597 C10.4420024,10.3899064 11.7183557,9.68660969 13.0728531,9.68660969 C14.1147741,9.68660969 15.1045991,10.1033781 15.8339438,10.8327228 C15.964184,10.9369149 16.0683761,11.0671551 16.1465201,11.1973952 C16.2246642,11.4057794 16.042328,11.5099715 15.8078958,11.5099715 L13.984534,11.5099715 C13.7761498,11.5099715 13.5938136,11.6923077 13.5938136,11.9006919 L13.5938136,12.7081807 C13.5938136,12.9165649 13.7501018,13.0728531 13.958486,13.0728531 L18.7252747,13.0728531 C18.9076109,13.0728531 19.0638991,12.9165649 19.0638991,12.7342287 L19.0638991,7.99348799 C19.037851,7.78510379 18.8555149,7.6027676 18.6471306,7.6027676 L18.6471306,7.6027676 Z" id="Mask" fill="#85ABFB" transform="translate(13.306841, 13.346357) scale(-1, 1) translate(-13.306841, -13.346357) "></path>
                </g>
            </g>
        </g>
    </g>
</svg>