<?xml version="1.0" encoding="UTF-8"?>
<svg width="32px" height="32px" viewBox="0 0 32 32" version="1.1" xmlns="http://www.w3.org/2000/svg" xmlns:xlink="http://www.w3.org/1999/xlink">
    <!-- Generator: Sketch 46.2 (44496) - http://www.bohemiancoding.com/sketch -->
    <title>defaultimage/combo@1x</title>
    <desc>Created with Sketch.</desc>
    <defs></defs>
    <g id="components" stroke="none" stroke-width="1" fill="none" fill-rule="evenodd">
        <g id="assets-2" transform="translate(-624.000000, -16.000000)" fill="#D1D7DD">
            <g id="defaultimage/combo" transform="translate(624.000000, 16.000000)">
                <g id="Group">
                    <g id="Shape" fill-rule="nonzero">
                        <path d="M3.33333333,32 C2.96533333,32 2.66666667,31.7013333 2.66666667,31.3333333 L2.66666667,0.666666667 C2.66666667,0.298666667 2.96533333,0 3.33333333,0 C3.70133333,0 4,0.298666667 4,0.666666667 L4,31.3333333 C4,31.7013333 3.70133333,32 3.33333333,32 Z"></path>
                        <path d="M31.3333333,29.3333333 L0.666666667,29.3333333 C0.298666667,29.3333333 0,29.0346667 0,28.6666667 C0,28.2986667 0.298666667,28 0.666666667,28 L31.3333333,28 C31.7013333,28 32,28.2986667 32,28.6666667 C32,29.0346667 31.7013333,29.3333333 31.3333333,29.3333333 Z"></path>
                        <path d="M10,22.6666667 C8.16266667,22.6666667 6.66666667,21.1706667 6.66666667,19.3333333 C6.66666667,17.496 8.16266667,16 10,16 C11.8373333,16 13.3333333,17.496 13.3333333,19.3333333 C13.3333333,21.1706667 11.8373333,22.6666667 10,22.6666667 Z"></path>
                        <path d="M18,14.6666667 C16.1626667,14.6666667 14.6666667,13.1706667 14.6666667,11.3333333 C14.6666667,9.496 16.1626667,8 18,8 C19.8373333,8 21.3333333,9.496 21.3333333,11.3333333 C21.3333333,13.1706667 19.8373333,14.6666667 18,14.6666667 Z"></path>
                        <path d="M27.3333333,9.33333333 C25.496,9.33333333 24,7.83733333 24,6 C24,4.16266667 25.496,2.66666667 27.3333333,2.66666667 C29.1706667,2.66666667 30.6666667,4.16266667 30.6666667,6 C30.6666667,7.83733333 29.1706667,9.33333333 27.3333333,9.33333333 Z"></path>
                    </g>
                    <path d="M10,26.6666667 C9.632,26.6666667 9.33333333,26.368 9.33333333,26 L9.33333333,24.6666667 C9.33333333,24.2986667 9.632,24 10,24 C10.368,24 10.6666667,24.2986667 10.6666667,24.6666667 L10.6666667,26 C10.6666667,26.368 10.368,26.6666667 10,26.6666667 Z" id="Shape" fill-rule="nonzero"></path>
                    <path d="M18,26.6666667 C17.632,26.6666667 17.3333333,26.368 17.3333333,26 L17.3333333,16.6666667 C17.3333333,16.2986667 17.632,16 18,16 C18.368,16 18.6666667,16.2986667 18.6666667,16.6666667 L18.6666667,26 C18.6666667,26.368 18.368,26.6666667 18,26.6666667 Z" id="Shape" fill-rule="nonzero"></path>
                    <path d="M27.3333333,26.6666667 C26.9653333,26.6666667 26.6666667,26.368 26.6666667,26 L26.6666667,11.3333333 C26.6666667,10.9653333 26.9653333,10.6666667 27.3333333,10.6666667 C27.7013333,10.6666667 28,10.9653333 28,11.3333333 L28,26 C28,26.368 27.7013333,26.6666667 27.3333333,26.6666667 Z" id="Shape" fill-rule="nonzero"></path>
                    <path d="M12,18 C11.8293333,18 11.6586667,17.9346667 11.528,17.8053333 C11.268,17.5453333 11.268,17.1226667 11.528,16.8626667 L15.528,12.8626667 C15.788,12.6026667 16.2106667,12.6026667 16.4706667,12.8626667 C16.7306667,13.1226667 16.7306667,13.5453333 16.4706667,13.8053333 L12.4706667,17.8053333 C12.3413333,17.9346667 12.1706667,18 12,18 Z" id="Shape" fill-rule="nonzero"></path>
                    <path d="M20.6666667,10.6666667 C20.4506667,10.6666667 20.24,10.5626667 20.1106667,10.3693333 C19.9066667,10.0626667 19.9893333,9.64933333 20.296,9.44533333 L24.296,6.77866667 C24.6026667,6.57333333 25.0173333,6.65733333 25.22,6.964 C25.424,7.27066667 25.3413333,7.684 25.0346667,7.888 L21.0346667,10.5546667 C20.9226667,10.6306667 20.7946667,10.6666667 20.6666667,10.6666667 Z" id="Shape" fill-rule="nonzero"></path>
                </g>
            </g>
        </g>
    </g>
</svg>