<?xml version="1.0" encoding="UTF-8"?>
<svg width="32px" height="32px" viewBox="0 0 32 32" version="1.1" xmlns="http://www.w3.org/2000/svg" xmlns:xlink="http://www.w3.org/1999/xlink">
    <!-- Generator: Sketch 46.2 (44496) - http://www.bohemiancoding.com/sketch -->
    <title>defaultimage/map1@1x</title>
    <desc>Created with Sketch.</desc>
    <defs></defs>
    <g id="components" stroke="none" stroke-width="1" fill="none" fill-rule="evenodd">
        <g id="assets-2" transform="translate(-528.000000, -16.000000)">
            <g id="defaultimage/map1" transform="translate(528.000000, 16.000000)">
                <g id="Group-16">
                    <rect id="Rectangle-3" fill="#FFFFFF" opacity="0" x="0" y="0" width="32" height="32"></rect>
                    <path d="M13.087039,3.08617 C12.1835096,2.22028765 11.3552743,1.47989549 10.6399802,0.87754255 C15.2517025,-0.724677881 20.3445603,-0.11122001 24.4439018,2.54028765 C21.9844113,2.59745393 19.5450407,2.99873566 17.196843,3.73244451 C16.7494701,3.08611092 16.0568665,2.65124675 15.2803493,2.52913793 C14.5038321,2.40702911 13.7111895,2.60833549 13.087039,3.08617 L13.087039,3.08617 Z M9.02743119,14.3802876 C11.0374524,16.3042823 13.388793,17.8363776 15.9607645,18.8979347 C17.7949319,19.6370338 19.7349856,20.079688 21.7082155,20.2093073 C21.8256815,19.612717 22.1313677,19.0695192 22.5803724,18.6595033 C20.9054214,14.830198 18.6956931,11.2578743 16.0172351,8.04930726 C14.8554126,8.58105725 13.4817453,8.2760826 12.6540979,7.30264059 C12.0529992,7.70907616 11.4768025,8.15117611 10.9286077,8.62656216 C10.1079711,9.34751811 9.35213504,10.1390464 8.66978414,10.9920524 C9.52359209,11.913831 9.669131,13.287514 9.02743119,14.3677386 L9.02743119,14.3677386 L9.02743119,14.3802876 Z M26.0752743,3.77009157 C23.2324945,3.68867968 20.3952793,4.06796387 17.6737057,4.89322882 C17.8441848,5.76531843 17.5903516,6.66654267 16.9897841,7.32146412 C19.6906314,10.5662652 21.9269653,14.1710073 23.63449,18.0320524 L23.63449,18.0320524 C23.9244933,17.9393045 24.2272742,17.8927228 24.5317449,17.8940131 C25.2464708,17.8933555 25.9356784,18.1596402 26.4642939,18.6406798 L26.4642939,18.6406798 C28.145816,17.6340488 29.889441,16.7349922 31.6846861,15.9489151 C31.6846861,15.9489151 31.6846861,15.9049935 31.6846861,15.8798955 C31.7016206,11.2057488 29.6504371,6.76343202 26.0815488,3.74499353 L26.0752743,3.77009157 Z M22.5803724,22.9198955 C18.501941,26.3771504 16.6697841,29.7402876 15.8854704,31.7042092 C19.2934408,31.7069291 22.6107154,30.6063072 25.3411567,28.5669543 C25.1197539,26.9148832 24.7864384,25.2797505 24.3435096,23.6728367 C23.6866351,23.6249799 23.0662573,23.3524568 22.5866469,22.901072 L22.5803724,22.9198955 Z M22.1223332,21.8783269 L22.1223332,21.8783269 C22.0411957,21.7206331 21.9511142,21.5677041 21.8525292,21.4202876 C19.6994116,21.2852906 17.58146,20.8087515 15.5780194,20.0085229 C12.8612813,18.8955663 10.3727239,17.2918293 8.23684296,15.2775426 L8.23684296,15.2775426 C7.5383882,15.7799934 6.64828801,15.934894 5.82115668,15.6979347 C4.42959985,18.8154163 3.57672731,22.1462867 3.29880374,25.5489151 C6.08120669,29.0915353 10.2209504,31.3059227 14.7121371,31.6540131 C15.4713528,29.5457778 17.1027253,25.7496994 22.1223332,21.8783269 Z M27.2799802,19.8265622 C27.3855203,20.1290562 27.438572,20.4473664 27.436843,20.7677386 C27.436843,20.8618563 27.436843,20.9496994 27.436843,21.0438171 C27.3274788,22.1488737 26.5964442,23.094345 25.55449,23.4783269 C25.9269889,24.8494678 26.222354,26.2404068 26.4391959,27.6446014 C29.4121208,24.9745088 31.2638312,21.2778134 31.621941,17.2979347 C30.1069882,17.9880087 28.6322212,18.7630993 27.2046861,19.6195033 C27.2332132,19.6872273 27.2583425,19.7563329 27.2799802,19.8265622 L27.2799802,19.8265622 Z M3.62507825,12.9246014 C3.62658254,12.2121528 3.89268125,11.5256628 4.37174492,10.9983269 L4.37174492,10.9983269 C3.60119611,9.95512926 2.88899511,8.87007009 2.23841159,7.74813079 C-0.746137195,12.7517819 -0.746137195,18.9891855 2.23841159,23.9928367 C2.60153687,20.9342012 3.42881781,17.9487961 4.69174492,15.1395033 C4.01631775,14.5921085 3.62431143,13.7688953 3.62507825,12.8995033 L3.62507825,12.9246014 Z M5.37566649,10.2642092 C6.10624394,9.94762939 6.93528512,9.94762939 7.66586257,10.2642092 C8.40720609,9.3407761 9.22813073,8.48415909 10.1191959,7.70420922 C10.7336669,7.16838011 11.3812187,6.67171413 12.0580194,6.21715039 C11.8236597,5.48708395 11.9079476,4.69204394 12.2901763,4.02734647 C11.167039,2.94185628 10.156843,2.06969941 9.34743119,1.40460137 C6.81530773,2.54630821 4.62614972,4.33094788 2.99762727,6.58107196 C3.71406363,7.83826998 4.50828811,9.0495147 5.37566649,10.2077386 L5.37566649,10.2077386 L5.37566649,10.2642092 Z" id="Shape" fill="#D1D7DD" fill-rule="nonzero"></path>
                </g>
            </g>
        </g>
    </g>
</svg>