<?xml version="1.0" encoding="UTF-8"?>
<svg width="32px" height="30px" viewBox="0 0 32 30" version="1.1" xmlns="http://www.w3.org/2000/svg" xmlns:xlink="http://www.w3.org/1999/xlink">
    <!-- Generator: Sketch 46.2 (44496) - http://www.bohemiancoding.com/sketch -->
    <title>defaultimage/network@1x</title>
    <desc>Created with Sketch.</desc>
    <defs></defs>
    <g id="components" stroke="none" stroke-width="1" fill="none" fill-rule="evenodd">
        <g id="assets-2" transform="translate(-480.000000, -17.000000)">
            <g id="defaultimage/network" transform="translate(480.000000, 16.000000)">
                <g id="image">
                    <rect id="Rectangle-4" fill="#FFFFFF" opacity="0" x="0" y="0" width="32" height="32"></rect>
                    <path d="M11.0311052,5.08007111 C11.0311052,6.56888178 11.9090768,7.86559644 13.1644343,8.49118222 L12.0533285,12.46896 C11.8608624,12.4451378 11.6631429,12.4356444 11.4644531,12.4356444 C10.2433758,12.4356444 9.12856654,12.8981369 8.28667676,13.6578667 L6.63110521,12.3134222 C6.86452885,11.8597724 6.99779499,11.3442667 6.99779499,10.8023111 C6.99779499,8.96037333 5.48301063,7.46897778 3.65332885,7.46897778 C1.82367232,7.46897778 0.32,8.96037333 0.32,10.8023111 C0.32,12.6339627 1.81908636,14.1356622 3.65332885,14.1356622 C4.43619499,14.1356622 5.15902948,13.8580089 5.73112405,13.4023111 L7.38665792,14.7578844 C6.9613477,15.4690276 6.71999979,16.294912 6.71999979,17.1800676 C6.71999979,19.791552 8.84731925,21.9134009 11.4644531,21.9134009 C11.7991429,21.9134009 12.1264624,21.8792676 12.4422295,21.8134187 L13.5199994,24.7245298 C12.5983994,25.2764231 11.975571,26.2805831 11.975571,27.424512 C11.975571,29.1566364 13.4079241,30.5800676 15.1422483,30.5800676 C16.8765473,30.5800676 18.297801,29.1566364 18.297801,27.424512 C18.297801,25.6924231 16.8765473,24.2800853 15.1422483,24.2800853 C15.0525097,24.2800853 14.9634768,24.2836409 14.8755898,24.2911076 L13.775571,21.3244587 C14.4316339,20.9613653 14.9887994,20.4404409 15.4089193,19.8244409 L20.3644339,22.2022187 C20.3561566,22.2740409 20.3533477,22.3505564 20.3533477,22.4244409 C20.3533477,23.4838187 21.2276531,24.3577742 22.2866768,24.3577742 C23.3457004,24.3577742 24.2200058,23.4838187 24.2200058,22.4244409 C24.2200058,21.3650631 23.3457004,20.4911076 22.2866768,20.4911076 C21.8165665,20.4911076 21.3907145,20.6742187 21.0533665,20.9577742 L16.0200058,18.5466809 C16.1512812,18.1146453 16.2311049,17.6543431 16.2311049,17.1799964 C16.2311049,17.0203164 16.2245271,16.8579342 16.2089182,16.7022364 L25.9866942,14.1911289 C26.4986565,15.1641387 27.5155888,15.8355698 28.6866753,15.8355698 C30.3660325,15.8355698 31.7422089,14.4560533 31.7422089,12.7688889 C31.7422089,11.0915556 30.3660325,9.71333333 28.6866753,9.71333333 C27.0073555,9.71333333 25.6200044,11.0915556 25.6200044,12.7688889 L15.8533662,15.3244587 C15.385171,14.2320533 14.513209,13.3496071 13.4311049,12.8577778 L14.5311237,8.86888889 C14.6377193,8.87792 14.7445285,8.89111111 14.8533285,8.89111111 C16.9529946,8.89111111 18.6755521,7.176 18.6755521,5.08 C18.6755521,2.984 16.9529946,1.28 14.8533285,1.28 C12.7537004,1.28007111 11.0311052,2.98407111 11.0311052,5.08007111 Z" id="Shape" fill="#D1D7DD"></path>
                </g>
            </g>
        </g>
    </g>
</svg>