<?xml version="1.0" encoding="UTF-8"?>
<svg width="26px" height="26px" viewBox="0 0 26 26" version="1.1" xmlns="http://www.w3.org/2000/svg" xmlns:xlink="http://www.w3.org/1999/xlink">
    <!-- Generator: Sketch 46.2 (44496) - http://www.bohemiancoding.com/sketch -->
    <title>defaultimage/photo@1x</title>
    <desc>Created with Sketch.</desc>
    <defs>
        <rect id="path-1" x="0" y="0" width="26" height="26"></rect>
    </defs>
    <g id="components" stroke="none" stroke-width="1" fill="none" fill-rule="evenodd">
        <g id="assets-2" transform="translate(-848.000000, -136.000000)">
            <g id="defaultimage/photo" transform="translate(848.000000, 136.000000)">
                <g id="Rectangle-12-Copy-3">
                    <use fill="#F0F4F7" fill-rule="evenodd" xlink:href="#path-1"></use>
                    <rect stroke="#D1D7DD" stroke-width="1" x="0.5" y="0.5" width="25" height="25"></rect>
                </g>
                <path d="M11,10.5 C11,10.9166687 10.8541681,11.2708319 10.5625,11.5625 C10.2708319,11.8541681 9.91666875,12 9.5,12 C9.08333125,12 8.72916813,11.8541681 8.4375,11.5625 C8.14583187,11.2708319 8,10.9166687 8,10.5 C8,10.0833313 8.14583187,9.72916812 8.4375,9.4375 C8.72916813,9.14583188 9.08333125,9 9.5,9 C9.91666875,9 10.2708319,9.14583188 10.5625,9.4375 C10.8541681,9.72916812 11,10.0833313 11,10.5 Z M19,13.5 L19,17 L8,17 L8,15.5 L10.5,13 L11.75,14.25 L15.75,10.25 L19,13.5 Z M19.75,8 L7.25,8 C7.18229133,8 7.12369816,8.02473934 7.07421875,8.07421875 C7.02473934,8.12369816 7,8.18229133 7,8.25 L7,17.75 C7,17.8177087 7.02473934,17.8763018 7.07421875,17.9257812 C7.12369816,17.9752607 7.18229133,18 7.25,18 L19.75,18 C19.8177087,18 19.8763018,17.9752607 19.9257812,17.9257812 C19.9752607,17.8763018 20,17.8177087 20,17.75 L20,8.25 C20,8.18229133 19.9752607,8.12369816 19.9257812,8.07421875 C19.8763018,8.02473934 19.8177087,8 19.75,8 Z M21,8.25 L21,17.75 C21,18.0937517 20.8776054,18.3880196 20.6328125,18.6328125 C20.3880196,18.8776054 20.0937517,19 19.75,19 L7.25,19 C6.90624828,19 6.61198039,18.8776054 6.3671875,18.6328125 C6.12239461,18.3880196 6,18.0937517 6,17.75 L6,8.25 C6,7.90624828 6.12239461,7.61198039 6.3671875,7.3671875 C6.61198039,7.12239461 6.90624828,7 7.25,7 L19.75,7 C20.0937517,7 20.3880196,7.12239461 20.6328125,7.3671875 C20.8776054,7.61198039 21,7.90624828 21,8.25 Z" id="-copy" fill="#D1D7DD"></path>
            </g>
        </g>
    </g>
</svg>