<?xml version="1.0" encoding="UTF-8"?>
<svg width="32px" height="25px" viewBox="0 0 32 25" version="1.1" xmlns="http://www.w3.org/2000/svg" xmlns:xlink="http://www.w3.org/1999/xlink">
    <!-- Generator: Sketch 46.2 (44496) - http://www.bohemiancoding.com/sketch -->
    <title>defaultimage/table@1x</title>
    <desc>Created with Sketch.</desc>
    <defs></defs>
    <g id="components" stroke="none" stroke-width="1" fill="none" fill-rule="evenodd">
        <g id="assets-2" transform="translate(-720.000000, -19.000000)">
            <g id="defaultimage/table" transform="translate(720.000000, 16.000000)">
                <g id="Group-3">
                    <rect id="Rectangle-2" fill="#FFFFFF" opacity="0" x="0" y="0" width="32" height="32"></rect>
                    <g id="noun_945946_cc-copy" transform="translate(0.000000, 3.840000)" fill-rule="nonzero" fill="#D1D7DD">
                        <path d="M9.95555556,17.4222222 L8.8817842e-16,17.4222222 L8.8817842e-16,12.0888889 L9.95555556,12.0888889 L9.95555556,17.4222222 Z M10.6666667,17.4222222 L21.3333333,17.4222222 L21.3333333,12.0888889 L10.6666667,12.0888889 L10.6666667,17.4222222 Z M10.6666667,23.4666667 L21.3333333,23.4666667 L21.3333333,18.1333333 L10.6666667,18.1333333 L10.6666667,23.4666667 Z M9.95555556,6.04444444 L8.8817842e-16,6.04444444 L8.8817842e-16,11.3777778 L9.95555556,11.3777778 L9.95555556,6.04444444 Z M10.6666667,11.3777778 L21.3333333,11.3777778 L21.3333333,6.04444444 L10.6666667,6.04444444 L10.6666667,11.3777778 Z M29.5111111,0 L2.48888889,0 C1.11431351,0 3.15796771e-16,1.11431351 0,2.48888889 L0,5.33333333 L32,5.33333333 L32,2.48888889 C32,1.11431351 30.8856865,0 29.5111111,0 Z M22.0444444,11.3777778 L32,11.3777778 L32,6.04444444 L22.0444444,6.04444444 L22.0444444,11.3777778 Z M9.95555556,18.1333333 L8.8817842e-16,18.1333333 L8.8817842e-16,20.9777778 C8.8817842e-16,22.3523532 1.11431351,23.4666667 2.48888889,23.4666667 L9.95555556,23.4666667 L9.95555556,18.1333333 Z M22.0444444,17.4222222 L32,17.4222222 L32,12.0888889 L22.0444444,12.0888889 L22.0444444,17.4222222 Z M22.0444444,23.4666667 L29.5111111,23.4666667 C30.8856865,23.4666667 32,22.3523532 32,20.9777778 L32,18.1333333 L22.0444444,18.1333333 L22.0444444,23.4666667 Z" id="Shape"></path>
                    </g>
                </g>
            </g>
        </g>
    </g>
</svg>