<?xml version="1.0" encoding="UTF-8"?>
<svg width="32px" height="32px" viewBox="0 0 32 32" version="1.1" xmlns="http://www.w3.org/2000/svg" xmlns:xlink="http://www.w3.org/1999/xlink">
    <!-- Generator: Sketch 46.2 (44496) - http://www.bohemiancoding.com/sketch -->
    <title>defaultimage/map2@1x</title>
    <desc>Created with Sketch.</desc>
    <defs></defs>
    <g id="components" stroke="none" stroke-width="1" fill="none" fill-rule="evenodd">
        <g id="assets-2" transform="translate(-576.000000, -16.000000)">
            <g id="defaultimage/map2" transform="translate(576.000000, 16.000000)">
                <g id="Group-16">
                    <rect id="Rectangle-3" fill="#FFFFFF" opacity="0" x="0" y="0" width="32" height="32"></rect>
                    <g id="Group" transform="translate(0.000000, 0.320000)" fill-rule="nonzero" fill="#D1D7DD">
                        <circle id="Oval" cx="4.84571429" cy="4.84571429" r="4.84571429"></circle>
                        <circle id="Oval" cx="27.1542857" cy="24.3657143" r="4.84571429"></circle>
                        <path d="M14.5828571,19.7028571 C14.1714286,19.3828571 13.5771429,19.4285714 13.2114286,19.84 C12.8914286,20.2514286 12.9371429,20.8457143 13.3485714,21.2114286 L17.0971429,24.32 L7.31428571,24.32 C3.74857143,24.32 2.10285714,22.08 2.10285714,20.0228571 C2.10285714,18.88 2.56,17.7828571 3.42857143,17.0057143 C4.43428571,16.0457143 5.89714286,15.5428571 7.68,15.5428571 L19.3828571,15.5428571 C23.9085714,15.5428571 26.0114286,12.5714286 26.0114286,9.78285714 C26.0114286,6.85714286 23.68,3.84 19.2914286,3.84 L12.2971429,3.84 C11.7485714,3.84 11.3371429,4.25142857 11.3371429,4.8 C11.3371429,5.34857143 11.7485714,5.76 12.2971429,5.76 L19.2914286,5.76 C22.5828571,5.76 24.0914286,7.81714286 24.0914286,9.73714286 C24.0914286,10.7428571 23.68,11.6571429 22.9942857,12.3428571 C22.1714286,13.12 20.9371429,13.5771429 19.4285714,13.5771429 L7.68,13.5771429 C5.39428571,13.5771429 3.47428571,14.2628571 2.10285714,15.5428571 C0.868571429,16.7314286 0.182857143,18.2857143 0.182857143,19.9771429 C0.182857143,23.0857143 2.65142857,26.1942857 7.31428571,26.1942857 L17.2342857,26.1942857 L13.3942857,29.6228571 C12.9828571,29.9885714 12.9828571,30.5828571 13.3028571,30.9942857 C13.4857143,31.2228571 13.76,31.3142857 14.0342857,31.3142857 C14.2628571,31.3142857 14.4914286,31.2228571 14.6742857,31.0857143 L20.3885714,25.9657143 C20.6171429,25.7828571 20.7085714,25.5085714 20.7085714,25.2342857 C20.7085714,24.96 20.5714286,24.6857143 20.3428571,24.5028571 L14.5828571,19.7028571 Z" id="Shape"></path>
                    </g>
                </g>
            </g>
        </g>
    </g>
</svg>