<?xml version="1.0" encoding="UTF-8"?>
<svg width="32px" height="32px" viewBox="0 0 32 32" version="1.1" xmlns="http://www.w3.org/2000/svg" xmlns:xlink="http://www.w3.org/1999/xlink">
    <!-- Generator: Sketch 46.2 (44496) - http://www.bohemiancoding.com/sketch -->
    <title>defaultimage/pie@1x</title>
    <desc>Created with Sketch.</desc>
    <defs></defs>
    <g id="components" stroke="none" stroke-width="1" fill="none" fill-rule="evenodd">
        <g id="assets-2" transform="translate(-672.000000, -16.000000)" fill="#D1D7DD">
            <g id="defaultimage/pie" transform="translate(672.000000, 16.000000)">
                <g id="noun_209256_cc-copy-2">
                    <g id="Group" fill-rule="nonzero">
                        <path d="M16.7125,15.2875 L31.9555556,15.2875 C31.5972222,7.03611111 24.9638889,0.402777778 16.7125,0.0458333333 L16.7125,15.2875 Z" id="Shape"></path>
                        <path d="M17.6944444,16.6763889 L27.775,26.7569444 C30.2361111,24.0736111 31.7875,20.5555556 31.9555556,16.6763889 L17.6944444,16.6763889 L17.6944444,16.6763889 Z" id="Shape"></path>
                        <path d="M15.5277778,16.4736111 C15.4638889,16.4097222 15.4125,16.3319444 15.3763889,16.2472222 C15.3416667,16.1625 15.3236111,16.0722222 15.3236111,15.9819444 L15.3236111,0.0458333333 C6.84027778,0.413888889 0.0458333333,7.40972222 0.0458333333,15.9833333 C0.0458333333,24.7902778 7.21111111,31.9555556 16.0180556,31.9555556 C20.1722222,31.9555556 23.9486111,30.3486111 26.7930556,27.7402778 L15.5277778,16.4736111 Z" id="Shape"></path>
                    </g>
                </g>
            </g>
        </g>
    </g>
</svg>