<?xml version="1.0" encoding="UTF-8"?>
<svg width="20px" height="20px" viewBox="0 0 20 20" version="1.1" xmlns="http://www.w3.org/2000/svg" xmlns:xlink="http://www.w3.org/1999/xlink">
    <!-- Generator: Sketch 46.2 (44496) - http://www.bohemiancoding.com/sketch -->
    <title>legend/range@1x</title>
    <desc>Created with Sketch.</desc>
    <defs></defs>
    <g id="components" stroke="none" stroke-width="1" fill="none" fill-rule="evenodd">
        <g id="assets-2" transform="translate(-996.000000, -139.000000)">
            <g id="legend/range" transform="translate(993.000000, 136.000000)">
                <g id="Group-58-Copy">
                    <rect id="Rectangle-12-Copy" fill="#D8D8D8" opacity="0" x="0" y="0" width="26" height="26"></rect>
                    <g id="Group-46" transform="translate(2.823529, 2.823529)" fill-rule="nonzero" fill="#FF5959">
                        <g id="Group-45" transform="translate(0.000000, -0.000000)">
                            <path d="M10,19 C5.02943725,19 1,14.9705627 1,10 C1,5.02943725 5.02943725,1 10,1 C14.9705627,1 19,5.02943725 19,10 C19,14.9705627 14.9705627,19 10,19 Z" id="Oval-5-Copy-2" fill-opacity="0.08"></path>
                            <path d="M10,18.5 C14.6944204,18.5 18.5,14.6944204 18.5,10 C18.5,5.30557963 14.6944204,1.5 10,1.5 C5.30557963,1.5 1.5,5.30557963 1.5,10 C1.5,14.6944204 5.30557963,18.5 10,18.5 Z M10,19.5 C4.75329488,19.5 0.5,15.2467051 0.5,10 C0.5,4.75329488 4.75329488,0.5 10,0.5 C15.2467051,0.5 19.5,4.75329488 19.5,10 C19.5,15.2467051 15.2467051,19.5 10,19.5 Z" id="Oval-5-Copy-3"></path>
                        </g>
                    </g>
                </g>
            </g>
        </g>
    </g>
</svg>