<?xml version="1.0" encoding="UTF-8"?>
<svg width="26px" height="26px" viewBox="0 0 26 26" version="1.1" xmlns="http://www.w3.org/2000/svg" xmlns:xlink="http://www.w3.org/1999/xlink">
    <!-- Generator: Sketch 46.2 (44496) - http://www.bohemiancoding.com/sketch -->
    <title>maptool/max-normal@1x</title>
    <desc>Created with Sketch.</desc>
    <defs>
        <rect id="path-1" x="0" y="0" width="18" height="18" rx="2"></rect>
        <filter x="-33.3%" y="-27.8%" width="166.7%" height="166.7%" filterUnits="objectBoundingBox" id="filter-2">
            <feMorphology radius="1" operator="dilate" in="SourceAlpha" result="shadowSpreadOuter1"></feMorphology>
            <feOffset dx="0" dy="1" in="shadowSpreadOuter1" result="shadowOffsetOuter1"></feOffset>
            <feGaussianBlur stdDeviation="1.5" in="shadowOffsetOuter1" result="shadowBlurOuter1"></feGaussianBlur>
            <feComposite in="shadowBlurOuter1" in2="SourceAlpha" operator="out" result="shadowBlurOuter1"></feComposite>
            <feColorMatrix values="0 0 0 0 0.329411765   0 0 0 0 0.411764706   0 0 0 0 0.552941176  0 0 0 0.5 0" type="matrix" in="shadowBlurOuter1"></feColorMatrix>
        </filter>
    </defs>
    <g id="components" stroke="none" stroke-width="1" fill="none" fill-rule="evenodd">
        <g id="assets-2" transform="translate(-845.000000, -25.000000)">
            <g id="maptool/max-normal" transform="translate(849.000000, 28.000000)">
                <g id="Group-11" stroke-width="1">
                    <g id="Rectangle-391-Copy-5">
                        <use fill="black" fill-opacity="1" filter="url(#filter-2)" xlink:href="#path-1"></use>
                        <use fill="#FFFFFF" fill-rule="evenodd" xlink:href="#path-1"></use>
                        <rect stroke="#CBD1DB" stroke-width="1" x="-0.5" y="-0.5" width="19" height="19" rx="2"></rect>
                    </g>
                </g>
                <path d="M8.92382812,9.9375 C8.92382812,9.9882815 8.90429707,10.0332029 8.86523438,10.0722656 L6.91992188,12.0175781 L7.76367188,12.8613281 C7.837891,12.9355472 7.875,13.023437 7.875,13.125 C7.875,13.226563 7.837891,13.3144528 7.76367188,13.3886719 C7.68945275,13.462891 7.60156301,13.5 7.5,13.5 L4.875,13.5 C4.77343699,13.5 4.68554725,13.462891 4.61132812,13.3886719 C4.537109,13.3144528 4.5,13.226563 4.5,13.125 L4.5,10.5 C4.5,10.398437 4.537109,10.3105472 4.61132812,10.2363281 C4.68554725,10.162109 4.77343699,10.125 4.875,10.125 C4.97656301,10.125 5.06445275,10.162109 5.13867188,10.2363281 L5.98242188,11.0800781 L7.92773438,9.13476562 C7.96679707,9.09570293 8.0117185,9.07617188 8.0625,9.07617188 C8.1132815,9.07617188 8.15820293,9.09570293 8.19726562,9.13476562 L8.86523438,9.80273438 C8.90429707,9.84179707 8.92382812,9.8867185 8.92382812,9.9375 Z M13.5,4.875 L13.5,7.5 C13.5,7.60156301 13.462891,7.68945275 13.3886719,7.76367188 C13.3144528,7.837891 13.226563,7.875 13.125,7.875 C13.023437,7.875 12.9355472,7.837891 12.8613281,7.76367188 L12.0175781,6.91992188 L10.0722656,8.86523438 C10.0332029,8.90429707 9.9882815,8.92382812 9.9375,8.92382812 C9.8867185,8.92382812 9.84179707,8.90429707 9.80273438,8.86523438 L9.13476562,8.19726562 C9.09570293,8.15820293 9.07617188,8.1132815 9.07617188,8.0625 C9.07617188,8.0117185 9.09570293,7.96679707 9.13476562,7.92773438 L11.0800781,5.98242188 L10.2363281,5.13867188 C10.162109,5.06445275 10.125,4.97656301 10.125,4.875 C10.125,4.77343699 10.162109,4.68554725 10.2363281,4.61132812 C10.3105472,4.537109 10.398437,4.5 10.5,4.5 L13.125,4.5 C13.226563,4.5 13.3144528,4.537109 13.3886719,4.61132812 C13.462891,4.68554725 13.5,4.77343699 13.5,4.875 Z" id="ï¥" fill="#A8B7C7"></path>
            </g>
        </g>
    </g>
</svg>