<?xml version="1.0" encoding="UTF-8"?>
<svg width="32px" height="32px" viewBox="0 0 32 32" version="1.1" xmlns="http://www.w3.org/2000/svg" xmlns:xlink="http://www.w3.org/1999/xlink">
    <!-- Generator: Sketch 46.2 (44496) - http://www.bohemiancoding.com/sketch -->
    <title>maptool/search-normal@1x</title>
    <desc>Created with Sketch.</desc>
    <defs>
        <rect id="path-1" x="0" y="0" width="24" height="24" rx="2"></rect>
        <filter x="-25.0%" y="-20.8%" width="150.0%" height="150.0%" filterUnits="objectBoundingBox" id="filter-2">
            <feMorphology radius="1" operator="dilate" in="SourceAlpha" result="shadowSpreadOuter1"></feMorphology>
            <feOffset dx="0" dy="1" in="shadowSpreadOuter1" result="shadowOffsetOuter1"></feOffset>
            <feGaussianBlur stdDeviation="1.5" in="shadowOffsetOuter1" result="shadowBlurOuter1"></feGaussianBlur>
            <feComposite in="shadowBlurOuter1" in2="SourceAlpha" operator="out" result="shadowBlurOuter1"></feComposite>
            <feColorMatrix values="0 0 0 0 0.329411765   0 0 0 0 0.411764706   0 0 0 0 0.552941176  0 0 0 0.5 0" type="matrix" in="shadowBlurOuter1"></feColorMatrix>
        </filter>
        <path d="M17.9090883,16.8136841 L14.5563837,13.4919994 C15.2319286,12.5429466 15.5822112,11.3441431 15.4070699,10.0704144 C15.1068277,7.9225582 13.3554148,6.22425326 11.1786588,6.02445268 C8.22627715,5.72475181 5.72425876,8.22225907 6.02450097,11.1942927 C6.22466244,13.342149 7.92603494,15.1153791 10.0777708,15.41508 C11.3538001,15.5899055 12.554769,15.2402545 13.5055359,14.5659275 L16.8332204,17.8876122 C16.9833415,18.0374626 17.2085232,18.0374626 17.3586443,17.8876122 L17.8840681,17.3631356 C18.0341892,17.2132852 18.0341892,16.9635345 17.9090883,16.8136841 L17.9090883,16.8136841 Z M7.50069182,10.7197663 C7.50069182,8.94653617 8.95186248,7.49798196 10.7282955,7.49798196 C12.5047286,7.49798196 13.9558993,8.94653617 13.9558993,10.7197663 C13.9558993,12.4929965 12.5047286,13.9415507 10.7282955,13.9415507 C8.95186248,13.9415507 7.50069182,12.5179716 7.50069182,10.7197663 L7.50069182,10.7197663 Z" id="path-3"></path>
    </defs>
    <g id="components" stroke="none" stroke-width="1" fill="none" fill-rule="evenodd">
        <g id="assets-2" transform="translate(-845.000000, -61.000000)">
            <g id="maptool/search-normal" transform="translate(849.000000, 64.000000)">
                <g id="Group-11" stroke-width="1" fill-rule="evenodd">
                    <g id="Rectangle-391-Copy-5">
                        <use fill="black" fill-opacity="1" filter="url(#filter-2)" xlink:href="#path-1"></use>
                        <use fill="#FFFFFF" fill-rule="evenodd" xlink:href="#path-1"></use>
                        <rect stroke="#CBD1DB" stroke-width="1" x="-0.5" y="-0.5" width="25" height="25" rx="2"></rect>
                    </g>
                </g>
                <mask id="mask-4" fill="white">
                    <use xlink:href="#path-3"></use>
                </mask>
                <use id="Mask" fill="#979EAC" fill-rule="evenodd" xlink:href="#path-3"></use>
            </g>
        </g>
    </g>
</svg>