<?xml version="1.0" encoding="UTF-8"?>
<svg width="32px" height="32px" viewBox="0 0 32 32" version="1.1" xmlns="http://www.w3.org/2000/svg" xmlns:xlink="http://www.w3.org/1999/xlink">
    <!-- Generator: Sketch 46.2 (44496) - http://www.bohemiancoding.com/sketch -->
    <title>maptool/zoomin-normal@1x</title>
    <desc>Created with Sketch.</desc>
    <defs>
        <rect id="path-1" x="0" y="0" width="24" height="24" rx="2"></rect>
        <filter x="-25.0%" y="-20.8%" width="150.0%" height="150.0%" filterUnits="objectBoundingBox" id="filter-2">
            <feMorphology radius="1" operator="dilate" in="SourceAlpha" result="shadowSpreadOuter1"></feMorphology>
            <feOffset dx="0" dy="1" in="shadowSpreadOuter1" result="shadowOffsetOuter1"></feOffset>
            <feGaussianBlur stdDeviation="1.5" in="shadowOffsetOuter1" result="shadowBlurOuter1"></feGaussianBlur>
            <feComposite in="shadowBlurOuter1" in2="SourceAlpha" operator="out" result="shadowBlurOuter1"></feComposite>
            <feColorMatrix values="0 0 0 0 0.329411765   0 0 0 0 0.411764706   0 0 0 0 0.552941176  0 0 0 0.5 0" type="matrix" in="shadowBlurOuter1"></feColorMatrix>
        </filter>
        <path d="M13.0909091,12.8181818 L17.5909091,12.8181818 C17.8090909,12.8181818 18,12.6272727 18,12.4090909 L18,11.5909091 C18,11.3727273 17.8090909,11.1818182 17.5909091,11.1818182 L13.0909091,11.1818182 C12.9272727,11.1818182 12.8181818,11.0727273 12.8181818,10.9090909 L12.8181818,6.40909091 C12.8181818,6.19090909 12.6272727,6 12.4090909,6 L11.5909091,6 C11.3727273,6 11.1818182,6.19090909 11.1818182,6.40909091 L11.1818182,10.9090909 C11.1818182,11.0727273 11.0727273,11.1818182 10.9090909,11.1818182 L6.40909091,11.1818182 C6.19090909,11.1818182 6,11.3727273 6,11.5909091 L6,12.4090909 C6,12.6272727 6.19090909,12.8181818 6.40909091,12.8181818 L10.9090909,12.8181818 C11.0727273,12.8181818 11.1818182,12.9272727 11.1818182,13.0909091 L11.1818182,17.5909091 C11.1818182,17.8090909 11.3727273,18 11.5909091,18 L12.4090909,18 C12.6272727,18 12.8181818,17.8090909 12.8181818,17.5909091 L12.8181818,13.0909091 C12.8181818,12.9272727 12.9272727,12.8181818 13.0909091,12.8181818 Z" id="path-3"></path>
    </defs>
    <g id="components" stroke="none" stroke-width="1" fill="none" fill-rule="evenodd">
        <g id="assets-2" transform="translate(-917.000000, -61.000000)">
            <g id="maptool/zoomin-normal" transform="translate(921.000000, 64.000000)">
                <g id="zoomin">
                    <g id="Rectangle-391-Copy-5">
                        <use fill="black" fill-opacity="1" filter="url(#filter-2)" xlink:href="#path-1"></use>
                        <use fill="#FFFFFF" fill-rule="evenodd" xlink:href="#path-1"></use>
                        <rect stroke="#CBD1DB" stroke-width="1" x="-0.5" y="-0.5" width="25" height="25" rx="2"></rect>
                    </g>
                    <mask id="mask-4" fill="white">
                        <use xlink:href="#path-3"></use>
                    </mask>
                    <use id="Mask" fill="#A8B7C7" xlink:href="#path-3"></use>
                </g>
            </g>
        </g>
    </g>
</svg>