<?xml version="1.0" encoding="UTF-8"?>
<svg width="26px" height="26px" viewBox="0 0 26 26" version="1.1" xmlns="http://www.w3.org/2000/svg" xmlns:xlink="http://www.w3.org/1999/xlink">
    <!-- Generator: Sketch 46.2 (44496) - http://www.bohemiancoding.com/sketch -->
    <title>maptool/zoomin@1x</title>
    <desc>Created with Sketch.</desc>
    <defs>
        <rect id="path-1" x="0" y="0" width="18" height="18" rx="2"></rect>
        <filter x="-33.3%" y="-27.8%" width="166.7%" height="166.7%" filterUnits="objectBoundingBox" id="filter-2">
            <feMorphology radius="1" operator="dilate" in="SourceAlpha" result="shadowSpreadOuter1"></feMorphology>
            <feOffset dx="0" dy="1" in="shadowSpreadOuter1" result="shadowOffsetOuter1"></feOffset>
            <feGaussianBlur stdDeviation="1.5" in="shadowOffsetOuter1" result="shadowBlurOuter1"></feGaussianBlur>
            <feComposite in="shadowBlurOuter1" in2="SourceAlpha" operator="out" result="shadowBlurOuter1"></feComposite>
            <feColorMatrix values="0 0 0 0 0.329411765   0 0 0 0 0.411764706   0 0 0 0 0.552941176  0 0 0 0.5 0" type="matrix" in="shadowBlurOuter1"></feColorMatrix>
        </filter>
        <path d="M9.98181818,9.73636364 L14.0318182,9.73636364 C14.2281818,9.73636364 14.4,9.56454545 14.4,9.36818182 L14.4,8.63181818 C14.4,8.43545455 14.2281818,8.26363636 14.0318182,8.26363636 L9.98181818,8.26363636 C9.83454545,8.26363636 9.73636364,8.16545455 9.73636364,8.01818182 L9.73636364,3.96818182 C9.73636364,3.77181818 9.56454545,3.6 9.36818182,3.6 L8.63181818,3.6 C8.43545455,3.6 8.26363636,3.77181818 8.26363636,3.96818182 L8.26363636,8.01818182 C8.26363636,8.16545455 8.16545455,8.26363636 8.01818182,8.26363636 L3.96818182,8.26363636 C3.77181818,8.26363636 3.6,8.43545455 3.6,8.63181818 L3.6,9.36818182 C3.6,9.56454545 3.77181818,9.73636364 3.96818182,9.73636364 L8.01818182,9.73636364 C8.16545455,9.73636364 8.26363636,9.83454545 8.26363636,9.98181818 L8.26363636,14.0318182 C8.26363636,14.2281818 8.43545455,14.4 8.63181818,14.4 L9.36818182,14.4 C9.56454545,14.4 9.73636364,14.2281818 9.73636364,14.0318182 L9.73636364,9.98181818 C9.73636364,9.83454545 9.83454545,9.73636364 9.98181818,9.73636364 Z" id="path-3"></path>
    </defs>
    <g id="components" stroke="none" stroke-width="1" fill="none" fill-rule="evenodd">
        <g id="assets-2" transform="translate(-881.000000, -25.000000)">
            <g id="maptool/zoomin-click" transform="translate(885.000000, 28.000000)">
                <g id="zoomin">
                    <g id="Rectangle-391-Copy-5">
                        <use fill="black" fill-opacity="1" filter="url(#filter-2)" xlink:href="#path-1"></use>
                        <use fill="#FFFFFF" fill-rule="evenodd" xlink:href="#path-1"></use>
                        <rect stroke="#CBD1DB" stroke-width="1" x="-0.5" y="-0.5" width="19" height="19" rx="2"></rect>
                    </g>
                    <mask id="mask-4" fill="white">
                        <use xlink:href="#path-3"></use>
                    </mask>
                    <use id="Mask" fill="#0D89FF" xlink:href="#path-3"></use>
                </g>
            </g>
        </g>
    </g>
</svg>